<svg xmlns="http://www.w3.org/2000/svg" viewBox="0 0 169.21 174.11"><defs><style>.cls-1{fill:#39b54a;}.cls-2{fill:#33875b;}.cls-3{fill:#c1272d;}.cls-4{fill:#ed1c24;}.cls-5{fill:#fff;}</style></defs><title>apple</title><g id="Layer_2" data-name="Layer 2"><g id="Layer_5" data-name="Layer 5"><ellipse class="cls-1" cx="70.62" cy="26.67" rx="10.41" ry="20.52" transform="translate(1.82 57.75) rotate(-45)"/><ellipse class="cls-1" cx="101.74" cy="21.05" rx="27.01" ry="13.7" transform="translate(21.44 86.98) rotate(-51.08)"/><circle class="cls-2" cx="65.96" cy="108.15" r="65.96"/><circle class="cls-3" cx="103.25" cy="108.15" r="65.96"/><circle class="cls-4" cx="65.96" cy="108.15" r="65.96"/><path class="cls-5" d="M22.27,132a4.48,4.48,0,0,1-3.94-2.34A51.05,51.05,0,0,1,17.18,83a4.49,4.49,0,1,1,8.09,3.89,42.6,42.6,0,0,0-4.19,18.35,42.15,42.15,0,0,0,5.13,20.1A4.49,4.49,0,0,1,22.27,132ZM39.69,69.46a4.49,4.49,0,0,1-2.26-8.37c.44-.26.89-.51,1.35-.76a4.49,4.49,0,0,1,4.29,7.89c-.38.2-.75.41-1.12.63A4.52,4.52,0,0,1,39.69,69.46Z"/></g></g></svg>