<svg xmlns="http://www.w3.org/2000/svg" viewBox="0 0 115.68 246.14"><defs><style>.cls-1{fill:#c9c91f;}.cls-2{fill:#f9f91c;}.cls-3{fill:#4f4325;}</style></defs><title>banana</title><g id="Layer_2" data-name="Layer 2"><g id="Layer_5" data-name="Layer 5"><path class="cls-1" d="M5.88,5.77A1.34,1.34,0,0,1,5.81,6c49,5.84,87.38,56.75,87.38,118.72,0,61.74-38.06,112.5-86.84,118.65a.66.66,0,0,1,.06.2A119.28,119.28,0,0,0,115.68,124.67,119.27,119.27,0,0,0,5.88,5.77Z"/><path class="cls-2" d="M5.81,6a2.59,2.59,0,0,1-.26.46c27.07,24.8,45,68.49,45,118.26,0,49.53-17.8,93-44.65,117.9a2.38,2.38,0,0,1,.41.75c48.78-6.15,86.84-56.91,86.84-118.65C93.19,62.7,54.85,11.79,5.81,6Z"/><path class="cls-3" d="M7.05,238c-5.26,0-5.27,8.17,0,8.17S12.31,238,7.05,238Z"/><path class="cls-3" d="M6.57,0c-8.75,0-8.77,13.61,0,13.61S15.35,0,6.57,0Z"/></g></g></svg>