<svg xmlns="http://www.w3.org/2000/svg" viewBox="0 0 100.36 244.84"><defs><style>.cls-1{fill:#556059;}.cls-2{fill:#b8c9bf;}.cls-3{fill:#87a092;}.cls-4{fill:none;stroke:#e6efe9;stroke-linecap:round;stroke-miterlimit:10;stroke-width:7px;}.cls-5{fill:#434f47;}</style></defs><title>mic</title><g id="Layer_2" data-name="Layer 2"><g id="Layer_5" data-name="Layer 5"><path class="cls-1" d="M49.83,244.83,31.43,244a6.55,6.55,0,0,1-6.24-6.27L17.34,52a6.56,6.56,0,0,1,6.86-6.83l51.51,2.43a6.54,6.54,0,0,1,6.18,7.44L56.63,239.17A6.55,6.55,0,0,1,49.83,244.83Z"/><path class="cls-2" d="M35.85,80.16c-19.43-3.7-33.3-14.27-32.3-35.62A46.73,46.73,0,0,1,29.15,5,54.22,54.22,0,0,0,17.25,36.6,53.83,53.83,0,0,0,35.85,80.16Z"/><path class="cls-3" d="M96.92,48.94C95.71,74.72,74.38,82.82,48.59,81.6a91,91,0,0,1-12.73-1.44h0A53.83,53.83,0,0,1,17.25,36.6,54.22,54.22,0,0,1,29.15,5,46.74,46.74,0,0,1,96.92,48.94Z"/><path class="cls-4" d="M96.86,48.78c-13.59,5-31.07,7.57-50,6.68-16.25-.76-31.19-4-43.36-8.82"/><path class="cls-5" d="M72.73,121.86l-2.45,17.86A173.77,173.77,0,0,1,49.1,140a163.17,163.17,0,0,1-28.2-3.65l-.76-18.09a162.32,162.32,0,0,0,29.8,4A173.42,173.42,0,0,0,72.73,121.86Z"/></g></g></svg>