<svg xmlns="http://www.w3.org/2000/svg" viewBox="0 0 148.28 174.36"><defs><style>.cls-1{fill:#ffa227;}.cls-2{fill:#39b54a;}.cls-3{fill:#f7931e;}</style></defs><title>orange</title><g id="Layer_2" data-name="Layer 2"><g id="Layer_5" data-name="Layer 5"><path class="cls-1" d="M0,100.22a74.16,74.16,0,0,0,108.52,65.7c-2,.16-4,.24-6.08.24A77.82,77.82,0,0,1,51.32,29.67,74.16,74.16,0,0,0,0,100.22Z"/><ellipse class="cls-2" cx="61.26" cy="21.86" rx="8.53" ry="16.82" transform="translate(2.49 49.72) rotate(-45)"/><ellipse class="cls-2" cx="86.76" cy="17.25" rx="22.13" ry="11.23" transform="translate(18.83 73.91) rotate(-51.08)"/><path class="cls-3" d="M24.62,88.34a77.82,77.82,0,0,0,77.82,77.82c2,0,4.08-.08,6.08-.24A74.16,74.16,0,0,0,51.32,29.67,77.62,77.62,0,0,0,24.62,88.34Z"/><path class="cls-1" d="M94.51,58.06c-3.28,0-3.28,5.09,0,5.09S97.79,58.06,94.51,58.06Z"/><path class="cls-1" d="M115.45,69.38c-3.28,0-3.28,5.09,0,5.09S118.73,69.38,115.45,69.38Z"/><path class="cls-1" d="M92.81,89.75c-3.27,0-3.28,5.1,0,5.1S96.1,89.75,92.81,89.75Z"/><path class="cls-1" d="M61.69,64.85c-3.28,0-3.29,5.1,0,5.1S65,64.85,61.69,64.85Z"/><path class="cls-1" d="M50.37,93.15c-3.28,0-3.28,5.09,0,5.09S53.65,93.15,50.37,93.15Z"/><path class="cls-1" d="M70.18,118.05c-3.28,0-3.29,5.09,0,5.09S73.46,118.05,70.18,118.05Z"/><path class="cls-1" d="M103,139c-3.28,0-3.28,5.09,0,5.09S106.28,139,103,139Z"/><path class="cls-1" d="M117.72,119.18c-3.28,0-3.29,5.1,0,5.1S121,119.18,117.72,119.18Z"/><path class="cls-1" d="M132.43,97.11c-3.28,0-3.28,5.09,0,5.09S135.71,97.11,132.43,97.11Z"/><path class="cls-1" d="M113.19,50.7c-3.28,0-3.28,5.1,0,5.1S116.47,50.7,113.19,50.7Z"/><path class="cls-1" d="M75.84,41.08c-3.28,0-3.29,5.1,0,5.1S79.12,41.08,75.84,41.08Z"/><path class="cls-1" d="M71.31,81.83c-3.28,0-3.28,5.09,0,5.09S74.59,81.83,71.31,81.83Z"/><path class="cls-1" d="M44.71,45.61c-3.28,0-3.28,5.09,0,5.09S48,45.61,44.71,45.61Z"/><path class="cls-3" d="M18.68,68.25c-3.28,0-3.29,5.09,0,5.09S22,68.25,18.68,68.25Z"/><path class="cls-3" d="M10.19,92.58c-3.28,0-3.29,5.1,0,5.1S13.47,92.58,10.19,92.58Z"/><path class="cls-3" d="M20.94,104.47c-3.28,0-3.28,5.09,0,5.09S24.22,104.47,20.94,104.47Z"/><path class="cls-3" d="M15.28,128.24c-3.28,0-3.28,5.09,0,5.09S18.56,128.24,15.28,128.24Z"/><path class="cls-3" d="M32.82,135c-3.27,0-3.28,5.09,0,5.09S36.11,135,32.82,135Z"/><path class="cls-3" d="M37.92,152c-3.28,0-3.28,5.09,0,5.09S41.2,152,37.92,152Z"/><path class="cls-3" d="M52.63,154.27c-3.27,0-3.28,5.09,0,5.09S55.92,154.27,52.63,154.27Z"/><path class="cls-3" d="M73.57,165.59c-3.28,0-3.28,5.09,0,5.09S76.85,165.59,73.57,165.59Z"/></g></g></svg>