<svg xmlns="http://www.w3.org/2000/svg" viewBox="0 0 131.41 235.69"><defs><style>.cls-1,.cls-3{fill:#fff;}.cls-1,.cls-2{stroke:#fff;stroke-miterlimit:10;stroke-width:6px;}.cls-2{fill:#b78b44;}.cls-3{opacity:0.3;}</style></defs><title>pint</title><g id="Layer_2" data-name="Layer 2"><g id="Layer_5" data-name="Layer 5"><path class="cls-1" d="M128.37,22.25c-2.3,26-7.65,68.57-12.88,85a154.09,154.09,0,0,0-7,36.76l-4.35,67.62a10.5,10.5,0,0,1-11.16,9.8l-79-5.08a10.5,10.5,0,0,1-9.8-11.16l4.35-67.62a153.83,153.83,0,0,0-2.26-37.35c-3.08-17-2.93-59.87-1.87-86A10.5,10.5,0,0,1,15.56,4.21l23.84-1A264.82,264.82,0,0,1,95.07,6.81l23.51,4A10.5,10.5,0,0,1,128.37,22.25Z"/><path class="cls-2" d="M127.67,33.17c-2.3,26-7.66,68.57-12.89,85a154.57,154.57,0,0,0-7,36.76l-4.36,67.62a10.49,10.49,0,0,1-11.15,9.8l-2.51.09A372.91,372.91,0,0,1,17.9,228l-4.63-.73a10.51,10.51,0,0,1-9.81-11.16l4.36-67.62a153.33,153.33,0,0,0-2.27-37.35c-3.07-17-2.92-59.87-1.86-86,.24-5.9,5.21-9.35,11.1-9L37.1,19.63a334,334,0,0,0,57.73,3.74l23-.51C123.7,23.24,128.19,27.3,127.67,33.17Z"/><path class="cls-3" d="M36.7,16.54l20.18-.84q10.32-.42,20.64-.14A299.68,299.68,0,0,0,35,14.3l-20.18.83a10.5,10.5,0,0,0-11.17,10c-1.06,26.12-1.21,69,1.86,86a153.83,153.83,0,0,1,2.27,37.35L3.46,216.13a10.51,10.51,0,0,0,9.81,11.16l21.84,1.4a10.5,10.5,0,0,1-9.81-11.16l4.36-67.61a153.94,153.94,0,0,0-2.27-37.36c-3.07-17-2.92-59.86-1.86-86A10.5,10.5,0,0,1,36.7,16.54Z"/><path class="cls-3" d="M94,53.92c-3.16-.21-3.48,4.71-.31,4.91S97.13,54.12,94,53.92Z"/><path class="cls-3" d="M59.5,72.53c-3.16-.2-3.48,4.71-.31,4.91S62.67,72.73,59.5,72.53Z"/><path class="cls-3" d="M85.45,89.55c-3.16-.2-3.48,4.71-.31,4.92S88.62,89.76,85.45,89.55Z"/><path class="cls-3" d="M48,114.92c-3.16-.2-3.48,4.71-.32,4.91S51.17,115.12,48,114.92Z"/><path class="cls-3" d="M83.11,148.62c-3.16-.21-3.48,4.71-.32,4.91S86.28,148.82,83.11,148.62Z"/><path class="cls-3" d="M92.2,121.06c-3.17-.21-3.49,4.71-.32,4.91S95.36,121.26,92.2,121.06Z"/><path class="cls-3" d="M55.15,145.72c-3.16-.21-3.48,4.71-.31,4.91S58.32,145.92,55.15,145.72Z"/><path class="cls-3" d="M41.73,189.45c-3.16-.21-3.48,4.71-.31,4.91S44.9,189.65,41.73,189.45Z"/><path class="cls-3" d="M62.52,207.23c-3.16-.2-3.48,4.71-.32,4.92S65.69,207.44,62.52,207.23Z"/><path class="cls-3" d="M88.71,192.11c-3.16-.21-3.48,4.71-.31,4.91S91.88,192.31,88.71,192.11Z"/><path class="cls-3" d="M33.41,103c-3.16-.2-3.48,4.71-.31,4.92S36.58,103.22,33.41,103Z"/><path class="cls-3" d="M43.1,37.85c-3.17-.21-3.49,4.71-.32,4.91S46.26,38.05,43.1,37.85Z"/><path class="cls-3" d="M40.12,61.41c-3.17-.2-3.49,4.71-.32,4.92S43.28,61.62,40.12,61.41Z"/><path class="cls-3" d="M85.11,32.51c-3.16-.2-3.48,4.71-.32,4.91S88.28,32.71,85.11,32.51Z"/><path class="cls-3" d="M116.19,32.32c-3.16-.2-3.48,4.71-.32,4.91S119.36,32.52,116.19,32.32Z"/></g></g></svg>