<svg xmlns="http://www.w3.org/2000/svg" viewBox="0 0 210.12 3676.53"><defs><style>.cls-1,.cls-2{fill:none;stroke-miterlimit:10;stroke-width:31px;}.cls-1{stroke:#7fb536;}.cls-2{stroke:#33875b;}.cls-3{fill:#33875b;}</style></defs><title>vine</title><g id="Layer_2" data-name="Layer 2"><g id="Layer_1-2" data-name="Layer 1"><line class="cls-1" x1="99.81" y1="20.53" x2="99.81" y2="3676.53"/><line class="cls-2" x1="111.81" y1="20.53" x2="111.81" y2="3676.53"/><ellipse class="cls-3" cx="42.56" cy="891.56" rx="29.21" ry="57.59" transform="translate(-617.97 291.23) rotate(-45)"/><ellipse class="cls-3" cx="42.56" cy="1332.56" rx="29.21" ry="57.59" transform="translate(-929.8 420.4) rotate(-45)"/><ellipse class="cls-3" cx="168.56" cy="1141.56" rx="57.59" ry="29.21" transform="translate(-757.84 453.55) rotate(-45)"/><ellipse class="cls-3" cx="42.56" cy="428.56" rx="29.21" ry="57.59" transform="translate(-290.57 155.62) rotate(-45)"/><ellipse class="cls-3" cx="168.56" cy="1737.56" rx="57.59" ry="29.21" transform="translate(-1179.28 628.12) rotate(-45)"/><ellipse class="cls-3" cx="42.56" cy="41.56" rx="29.21" ry="57.59" transform="translate(-16.92 42.27) rotate(-45)"/><ellipse class="cls-3" cx="42.56" cy="1928.56" rx="29.21" ry="57.59" transform="translate(-1351.24 594.97) rotate(-45)"/><ellipse class="cls-3" cx="168.56" cy="631.56" rx="57.59" ry="29.21" transform="translate(-397.21 304.17) rotate(-45)"/><ellipse class="cls-3" cx="168.56" cy="236.56" rx="57.59" ry="29.21" transform="translate(-117.9 188.48) rotate(-45)"/><ellipse class="cls-3" cx="41.56" cy="3039.06" rx="29.21" ry="57.59" transform="translate(-2136.79 919.53) rotate(-45)"/><ellipse class="cls-3" cx="41.56" cy="3556.06" rx="29.21" ry="57.59" transform="translate(-2502.36 1070.96) rotate(-45)"/><ellipse class="cls-3" cx="167.56" cy="3365.06" rx="57.59" ry="29.21" transform="translate(-2330.4 1104.11) rotate(-45)"/><ellipse class="cls-3" cx="41.56" cy="2652.06" rx="29.21" ry="57.59" transform="translate(-1863.13 806.17) rotate(-45)"/><ellipse class="cls-3" cx="41.56" cy="2265.06" rx="29.21" ry="57.59" transform="translate(-1589.48 692.82) rotate(-45)"/><ellipse class="cls-3" cx="167.56" cy="2855.06" rx="57.59" ry="29.21" transform="translate(-1969.77 954.73) rotate(-45)"/><ellipse class="cls-3" cx="167.56" cy="2460.06" rx="57.59" ry="29.21" transform="translate(-1690.46 839.03) rotate(-45)"/><ellipse class="cls-3" cx="161.56" cy="2116.06" rx="57.59" ry="29.21" transform="translate(-1448.97 734.04) rotate(-45)"/></g></g></svg>